<?xml version="1.0" encoding="UTF-8" standalone="no"?>
<!-- Created with Inkscape (http://www.inkscape.org/) -->

<svg
   width="114.24612mm"
   height="114.93337mm"
   viewBox="0 0 114.24614 114.93337"
   version="1.1"
   id="svg5"
   sodipodi:docname="tag bleu.svg"
   inkscape:version="1.2.2 (b0a8486541, 2022-12-01)"
   xmlns:inkscape="http://www.inkscape.org/namespaces/inkscape"
   xmlns:sodipodi="http://sodipodi.sourceforge.net/DTD/sodipodi-0.dtd"
   xmlns="http://www.w3.org/2000/svg"
   xmlns:svg="http://www.w3.org/2000/svg">
  <sodipodi:namedview
     id="namedview7"
     pagecolor="#ffffff"
     bordercolor="#999999"
     borderopacity="1"
     inkscape:showpageshadow="0"
     inkscape:pageopacity="0"
     inkscape:pagecheckerboard="0"
     inkscape:deskcolor="#d1d1d1"
     inkscape:document-units="mm"
     showgrid="false"
     showguides="true"
     inkscape:zoom="1"
     inkscape:cx="235"
     inkscape:cy="317.5"
     inkscape:window-width="1920"
     inkscape:window-height="1008"
     inkscape:window-x="0"
     inkscape:window-y="0"
     inkscape:window-maximized="1"
     inkscape:current-layer="layer1">
    <sodipodi:guide
       position="0.24603725,108.77664"
       orientation="1,0"
       id="guide322"
       inkscape:locked="false" />
    <sodipodi:guide
       position="96.424165,99.845921"
       orientation="1,0"
       id="guide324"
       inkscape:locked="false" />
    <sodipodi:guide
       position="6.6231602,70.966385"
       orientation="0,-1"
       id="guide747"
       inkscape:locked="false" />
  </sodipodi:namedview>
  <defs
     id="defs2">
    <rect
       x="308.1073"
       y="129.61613"
       width="243.49725"
       height="293.48706"
       id="rect938" />
    <rect
       x="330.60696"
       y="152.11853"
       width="103.9877"
       height="90.495743"
       id="rect932" />
  </defs>
  <g
     inkscape:label="Calque 1"
     inkscape:groupmode="layer"
     id="layer1"
     transform="translate(-53.367438,-29.360721)">
    <rect
       style="fill:#0066ff;fill-opacity:1;stroke:#05cdff;stroke-width:0.49;stroke-linecap:round;stroke-linejoin:round;stroke-dasharray:none;stroke-opacity:1"
       id="rect801-7"
       width="28.550011"
       height="7.3496842"
       x="-133.41147"
       y="131.55486"
       transform="matrix(-0.95881974,0.28401534,0.28401534,0.95881974,0,0)" />
    <path
       id="path165"
       style="fill:#d38d5f;stroke-width:0.264583"
       inkscape:transform-center-y="-13.457298"
       d="m 71.539049,6.9438359 c -18.64696,-1e-7 -55.940789,64.5946511 -46.61731,80.7433921 1.346323,2.3319 4.059879,4.325173 7.734929,5.983614 h 77.765282 c 3.67505,-1.658441 6.3886,-3.651714 7.73493,-5.983614 C 127.48036,71.538487 90.186008,6.943836 71.539049,6.9438359 Z"
       transform="translate(30.164304,28.726855)" />
    <rect
       style="fill:#0066ff;fill-opacity:1;stroke:#05cdff;stroke-width:0.49;stroke-linecap:round;stroke-linejoin:round;stroke-dasharray:none;stroke-opacity:1"
       id="rect430"
       width="69.214432"
       height="21.137589"
       x="66.449043"
       y="29.605721" />
    <rect
       style="fill:#0066ff;fill-opacity:1;stroke:#05cdff;stroke-width:0.49;stroke-linecap:round;stroke-linejoin:round;stroke-dasharray:none;stroke-opacity:1"
       id="rect436"
       width="96.170982"
       height="13.658044"
       x="53.612438"
       y="50.565472"
       ry="0"
       rx="2.9000001" />
    <circle
       style="fill:#ffffff;stroke-width:0.264583"
       id="path496"
       cx="81.485626"
       cy="78.064857"
       r="4.6304626" />
    <circle
       style="fill:#000000;stroke-width:0.264583"
       id="path654"
       cx="83.406265"
       cy="77.86647"
       r="1.3887032" />
    <circle
       style="fill:#ffffff;stroke-width:0.264583"
       id="path496-3"
       cx="119.05988"
       cy="78.052811"
       r="4.6304626" />
    <circle
       style="fill:#000000;stroke-width:0.264583"
       id="path654-6"
       cx="120.98052"
       cy="77.854424"
       r="1.3887032" />
    <path
       id="rect801-7-5"
       style="fill:#0066ff;fill-opacity:1;stroke:#05cdff;stroke-width:0.49;stroke-linecap:round;stroke-linejoin:round;stroke-dasharray:none;stroke-opacity:1"
       d="m -53.287769,109.39038 24.32156,-1.1e-4 -1.68e-4,0.0486 c 0.766389,0.0678 1.362648,0.70812 1.360986,1.49238 l -0.0068,3.20127 c -0.0017,0.77982 -0.593572,1.41538 -1.354019,1.486 l 1.81e-4,0.0334 -24.321707,-3.8e-4 z"
       transform="matrix(-0.95881974,0.28401534,0.28401534,0.95881974,0,0)" />
    <text
       xml:space="preserve"
       transform="scale(0.26458333)"
       id="text930"
       style="white-space:pre;shape-inside:url(#rect932);shape-padding:0.996094;display:inline;fill:#ff0000" />
    <text
       xml:space="preserve"
       transform="matrix(0.26458333,0,0,0.26458333,2.515318,-10.187447)"
       id="text936"
       style="font-size:160px;white-space:pre;shape-inside:url(#rect938);shape-padding:3.91378;display:inline;fill:#f2f2f2"
       x="223.125"
       y="0"><tspan
         x="312.02148"
         y="275.0918"
         id="tspan6983"><tspan
           style="font-weight:bold;-inkscape-font-specification:'sans-serif Bold'"
           id="tspan6981">B</tspan></tspan></text>
    <path
       id="rect1111"
       style="fill:#0066ff;fill-opacity:1;stroke:#05cdff;stroke-width:0.49;stroke-linecap:round;stroke-linejoin:round;stroke-dasharray:none;stroke-opacity:1"
       d="m 66.03783,122.38633 v 16.8398 h 0.0021 v 4.81159 h 22.126814 0.05633 v -0.001 c 1.3838,-0.0327 2.488737,-1.27281 2.488737,-2.80862 v -1.06712 c 0,-1.53581 -1.104937,-2.77587 -2.488737,-2.80861 v -0.003 H 83.99384 v -14.96343 z" />
    <path
       id="rect1111-9"
       style="fill:#0066ff;fill-opacity:1;stroke:#05cdff;stroke-width:0.49;stroke-linecap:round;stroke-linejoin:round;stroke-dasharray:none;stroke-opacity:1"
       d="m 112.44068,122.3977 v 16.8398 h 0.002 v 4.81159 h 22.12733 0.0563 v -0.001 c 1.38359,-0.033 2.48822,-1.27297 2.48822,-2.80862 v -1.06712 c 0,-1.53565 -1.10463,-2.77614 -2.48822,-2.80913 v -0.002 h -4.22972 V 122.3977 Z" />
    <rect
       style="fill:#aa0000;stroke-width:0.264583"
       id="rect241"
       width="27.773409"
       height="4.5306792"
       x="87.289742"
       y="101.76302"
       ry="2.2653396" />
    <text
       xml:space="preserve"
       style="font-style:normal;font-variant:normal;font-weight:bold;font-stretch:normal;font-size:42.3333px;font-family:sans-serif;-inkscape-font-specification:'sans-serif Bold';fill:#2ca05a;stroke:#1bff73;stroke-width:0.393999;stroke-linecap:round;stroke-linejoin:round"
       x="214.72102"
       y="96.807312"
       id="text469"><tspan
         sodipodi:role="line"
         id="tspan467"
         style="stroke-width:0.394"
         x="214.72102"
         y="96.807312" /></text>
  </g>
</svg>
